<svg width="28" height="28" viewBox="0 0 28 28" fill="none" xmlns="http://www.w3.org/2000/svg">
<path d="M14.0002 27.3332C6.63619 27.3332 0.666855 21.3638 0.666855 13.9998C0.666855 6.63584 6.63619 0.666504 14.0002 0.666504C21.3642 0.666504 27.3335 6.63584 27.3335 13.9998C27.3335 21.3638 21.3642 27.3332 14.0002 27.3332ZM14.0002 24.6665C16.8292 24.6665 19.5423 23.5427 21.5427 21.5423C23.543 19.5419 24.6669 16.8288 24.6669 13.9998C24.6669 11.1709 23.543 8.45775 21.5427 6.45737C19.5423 4.45698 16.8292 3.33317 14.0002 3.33317C11.1712 3.33317 8.4581 4.45698 6.45772 6.45737C4.45733 8.45775 3.33352 11.1709 3.33352 13.9998C3.33352 16.8288 4.45733 19.5419 6.45772 21.5423C8.4581 23.5427 11.1712 24.6665 14.0002 24.6665ZM12.6669 7.33317H15.3335V9.99984H12.6669V7.33317ZM12.6669 12.6665H15.3335V20.6665H12.6669V12.6665Z" fill="#182949"/>
</svg>
