<svg width="67" height="63" viewBox="0 0 67 63" fill="none" xmlns="http://www.w3.org/2000/svg">
<path d="M33.3419 57.9796C36.4226 57.9796 39.3388 55.1751 41.5623 50.6429C44.0018 45.6699 45.5115 38.7424 45.5115 31.0416C45.5115 23.3408 44.0022 16.4137 41.5623 11.4403C39.3388 6.9082 36.423 4.10413 33.3419 4.10413C30.2608 4.10413 27.3447 6.9082 25.1212 11.4403C22.6813 16.4137 21.1725 23.3408 21.1725 31.0416C21.1725 38.7424 22.6817 45.6699 25.1212 50.6429C27.3447 55.1751 30.2608 57.9796 33.3419 57.9796ZM45.2337 52.438C42.3103 58.3971 38.115 62.0833 33.3419 62.0833C28.5689 62.0833 24.3732 58.3971 21.4503 52.438C18.743 46.9198 17.0684 39.3511 17.0684 31.0416C17.0684 22.7322 18.743 15.1639 21.4503 9.64524C24.3732 3.68656 28.5685 0 33.3419 0C38.115 0 42.3103 3.68656 45.2337 9.64524C47.941 15.1639 49.6152 22.7322 49.6152 31.0416C49.6152 39.3511 47.9406 46.9198 45.2337 52.438Z" fill="#E6BE80"/>
<path d="M4.98972 8.32936C9.01035 5.7469 14.5306 6.57722 20.2034 10.0068C25.4542 13.1815 30.9524 18.6483 35.4512 25.6529C39.9496 32.6563 42.6344 39.9291 43.3375 46.0251C44.0975 52.6105 42.5562 57.9766 38.5351 60.559C34.5145 63.1419 28.9947 62.312 23.3219 58.8824C18.071 55.7081 12.5732 50.2416 8.07399 43.237L8.03509 43.1756C3.55996 36.1907 0.888337 28.942 0.187317 22.8637C-0.572323 16.2779 0.968691 10.9122 4.98972 8.32936V8.32936ZM18.0878 13.5175C13.7601 10.9014 9.78926 10.114 7.20159 11.7758C4.61472 13.4376 3.67958 17.3756 4.25894 22.3991C4.89492 27.9126 7.36575 34.5566 11.5197 41.024L11.5301 41.0409C15.6816 47.499 20.692 52.5025 25.4373 55.3716C29.7647 57.9878 33.7356 58.7748 36.3233 57.1129C38.9101 55.4511 39.8452 51.5132 39.2658 46.4896C38.6299 40.9766 36.159 34.3318 32.0051 27.8648C27.852 21.3986 22.8372 16.3891 18.0878 13.5175V13.5175Z" fill="#5FA494"/>
<path d="M59.4821 11.7756C56.8945 10.1138 52.9236 10.9012 48.5962 13.5173C43.8465 16.3885 38.8318 21.3984 34.6786 27.8646C30.5247 34.332 28.0534 40.9768 27.4174 46.4894C26.8381 51.513 27.7736 55.4509 30.3605 57.1127C32.9477 58.775 36.919 57.9876 41.2464 55.3714C45.9958 52.4999 51.0108 47.49 55.164 41.0238C59.3183 34.5564 61.7892 27.9116 62.4252 22.3989C63.0041 17.3754 62.0694 13.4375 59.4821 11.7756V11.7756ZM46.4803 10.007C52.1535 6.57701 57.6734 5.74711 61.694 8.32916C65.715 10.912 67.256 16.2777 66.4963 22.8635C65.7929 28.9595 63.1085 36.2327 58.6104 43.2361C54.1112 50.2402 48.6127 55.7071 43.3619 58.8817C37.6891 62.3114 32.1692 63.1417 28.1486 60.5588C24.1276 57.9764 22.5866 52.6103 23.3467 46.0249C24.0501 39.9289 26.7345 32.6557 31.2322 25.6527C35.7314 18.6481 41.2295 13.1813 46.4803 10.007Z" fill="#F08365"/>
</svg>
