<svg width="46" height="48" viewBox="0 0 46 48" fill="none" xmlns="http://www.w3.org/2000/svg">
<path fill-rule="evenodd" clip-rule="evenodd" d="M31.7282 0.362257C32.0099 0.640539 32.1808 1.00545 32.2995 1.58166C32.3925 2.03375 32.5198 2.53358 32.5821 2.69216C32.7008 2.99383 32.7812 5.83643 32.7874 9.94549L32.791 12.3671L32.1174 14.6274C31.7468 15.8706 31.227 17.4485 30.9624 18.1334C30.6977 18.8186 30.4811 19.5506 30.4811 19.7602C30.4811 20.3958 31.2629 21.7236 32.2171 22.7084C33.3993 23.9285 33.4603 24.2107 32.8193 25.4943C32.1879 26.7587 32.0616 27.138 31.954 28.0917C31.9057 28.5205 31.7056 29.4857 31.5096 30.2366C31.0183 32.1191 31.0187 32.1637 31.5319 32.1183C35.7172 31.7484 38.9672 31.7141 39.4314 32.0352C39.9841 32.4176 40.1483 33.0444 40.1483 34.7713C40.1483 35.6441 40.2101 36.5187 40.2858 36.7151C40.3613 36.9115 40.4591 37.6782 40.5031 38.4193C40.6683 41.2043 41.1569 42.803 42.1525 43.8159C42.7003 44.3735 43.0534 44.5453 44.2114 44.8184C45.66 45.16 46.2511 45.5667 45.9024 45.9819C45.6638 46.2657 44.0899 46.2703 43.3007 45.9895C42.5871 45.7357 41.7726 45.7357 41.059 45.9895C40.2614 46.2733 39.6843 46.2466 39.2455 45.9058C38.8711 45.6147 38.8668 45.5933 38.9605 44.4817C39.0314 43.6417 39.0011 43.1775 38.8423 42.6667C38.6145 41.934 37.6312 39.2105 37.3455 38.521C37.251 38.2926 37.0992 37.6077 37.0084 36.9988C36.8113 35.6766 36.632 35.5873 35.323 36.1591C33.6469 36.8911 32.1834 37.2246 29.5004 37.4859C27.7605 37.6553 27.7035 37.6717 26.9723 38.2134C26.6289 38.4678 25.8436 39.051 25.2272 39.5093C23.7107 40.6368 23.0072 40.9833 20.954 41.6138C18.5178 42.3617 18.1712 42.4499 17.0062 42.6177C14.8985 42.9213 13.979 43.0014 12.5034 43.0097C11.6701 43.0144 10.866 43.0828 10.7168 43.1617C10.5676 43.2406 9.38959 43.3381 8.09908 43.3784C4.65727 43.4859 3.72109 43.7361 3.72109 44.5481C3.72109 45.506 4.54504 46.6162 5.25594 46.6162C5.80515 46.6162 6.21173 46.9525 6.02553 47.2528C5.73678 47.7188 4.96284 48 3.9688 48C3.08782 48 2.98456 47.9671 2.49559 47.5295C2.20642 47.2706 1.78064 46.6967 1.54947 46.2539C1.31829 45.8112 0.930763 45.1901 0.688103 44.8737C-0.419567 43.4288 -0.25312 42.9959 1.65048 42.3715C2.21132 42.1875 3.11163 41.8588 3.65104 41.6413C6.896 40.3325 8.36444 39.9755 10.8664 39.8871C13.2167 39.804 13.6165 39.7103 15.63 38.7703C18.1505 37.5937 18.9639 37.2317 19.6067 37.0004C19.983 36.865 20.4045 36.642 20.5433 36.5049C20.8038 36.2477 21.092 35.415 21.0932 34.9156C21.0956 34.077 22.5921 32.6676 23.8194 32.3481C25.1187 32.0099 25.5263 31.7329 25.9332 30.9114C26.3557 30.0585 26.3571 29.9593 26.0001 26.0668C25.8114 24.0096 25.9376 22.3138 26.3837 20.9131C26.5835 20.2858 26.7061 19.7321 26.6562 19.6829C26.6064 19.6336 26.2324 19.82 25.8251 20.097C24.8974 20.7282 24.1897 20.7786 23.6926 20.2487C23.5067 20.0506 23.1318 19.2044 22.8345 18.3119C22.3402 16.8277 22.3169 16.6831 22.4682 16.0357C22.7423 14.8631 23.7977 13.6668 24.8419 13.3451C25.1525 13.2495 25.1571 13.2659 25.1571 14.4762C25.1571 15.342 25.2178 15.7839 25.3628 15.9732C25.6136 16.3006 25.5954 16.3755 25.6415 14.8256C25.6643 14.0551 25.7495 13.4646 25.8557 13.338C26.2015 12.9266 27.0904 13.1457 27.9291 13.8492C28.2663 14.1322 28.5395 14.2353 28.952 14.2353C29.6986 14.2353 29.8667 13.8365 30.0721 11.5802C30.1575 10.6431 30.2897 9.59608 30.3659 9.25359C30.5824 8.28175 30.8004 5.96665 30.7092 5.60769C30.6639 5.42973 30.1528 4.89185 29.5732 4.41264C28.3959 3.439 28.1633 2.92339 28.975 3.08668C29.2253 3.13705 29.5879 3.19075 29.7806 3.20611L30.1308 3.23406L30.2009 1.64269L30.2709 0.0513171L30.7986 0.00828083C31.2256 -0.0265909 31.4027 0.0408002 31.7282 0.362257Z" fill="white"/>
</svg>
