<svg width="30" height="40" viewBox="0 0 30 40" fill="none" xmlns="http://www.w3.org/2000/svg">
<path fill-rule="evenodd" clip-rule="evenodd" d="M9.97326 0.0806823C9.92874 0.125004 8.59568 0.193745 7.01075 0.233333C2.51476 0.345643 1.74077 0.485385 0.882609 1.33986C0.340289 1.87968 -0.100786 2.94921 0.020126 3.43115C0.0588091 3.58531 0.13758 3.95343 0.195281 4.24927C0.252873 4.5451 0.347204 5.01715 0.404688 5.29814C0.462173 5.57913 0.550669 6.03912 0.601238 6.32011C0.690274 6.81496 1.31191 8.6642 2.02041 10.5425C2.95248 13.0133 3.01699 13.2383 2.94243 13.756C2.87371 14.2331 2.79235 15.5538 2.5636 19.9016C2.46516 21.773 2.40076 22.7423 2.12566 26.4907C2.06374 27.3338 1.98886 28.9845 1.95915 30.1588C1.9075 32.2005 1.91538 32.3113 2.13722 32.6869C2.66344 33.5776 3.20878 33.7752 5.14791 33.7774C5.94599 33.7782 6.74829 33.7338 6.93079 33.6787C7.1133 33.6235 7.45712 33.53 7.69484 33.471C7.93256 33.4119 8.41502 33.2806 8.76695 33.179C9.40662 32.9943 9.40684 32.9944 9.60566 33.2388C9.71512 33.3734 9.82965 33.6104 9.86034 33.7656C9.89103 33.9209 9.9685 34.1931 10.0325 34.3707C10.297 35.1042 10.7672 36.3449 10.9906 36.8987C11.1219 37.2241 11.2984 37.6764 11.3829 37.9038C11.8054 39.0403 12.5154 40.0471 12.86 39.9983C13.2678 39.9405 13.2387 39.0828 12.7829 37.7265C12.4216 36.6517 12.2534 36.2462 11.5019 34.6396C10.8792 33.3084 10.7709 32.9372 10.9529 32.756C11.0413 32.6679 11.244 32.5693 11.4032 32.5367C11.6754 32.481 11.9236 32.4205 12.9084 32.1697C13.1313 32.1131 13.4595 32.0433 13.6378 32.0151C13.8161 31.9867 14.1685 31.912 14.4212 31.8493C14.6738 31.7865 15.0628 31.6951 15.2856 31.6463C16.7738 31.3203 18.2408 29.8516 18.5813 28.3464C18.7579 27.5662 18.891 26.6411 18.9917 25.4956C19.0463 24.8743 19.1421 23.8578 19.2046 23.2365C19.2672 22.6152 19.3531 21.5052 19.3955 20.7697L19.4727 19.4324L19.7968 19.3321C20.0992 19.2387 20.8167 19.114 21.856 18.9741C22.3896 18.9022 22.5024 19.0136 22.8343 19.9397C22.9647 20.3033 23.2173 21.0028 23.3955 21.494C23.6012 22.0604 23.6731 22.2717 23.6445 22.4007L24.6194 24.5829C24.6999 24.7183 24.7715 24.918 24.8863 25.2376C24.8989 25.2726 24.912 25.3091 24.9257 25.3471C25.0936 25.8134 25.3334 26.449 25.4584 26.7596L25.9131 27.8892C26.0381 28.1997 26.2761 28.817 26.4421 29.2608C26.6081 29.7045 26.8461 30.3218 26.9711 30.6324C27.5331 32.0285 27.6436 32.3066 27.8468 32.8362C27.9657 33.146 28.0629 33.4836 28.0629 33.5863C28.0629 33.6892 28.1564 33.9803 28.2706 34.2333C28.3849 34.4863 28.5323 34.8402 28.5982 35.0196C28.7187 35.3478 29.0342 35.7496 29.3886 36.0261C29.5539 36.1552 29.6086 36.1493 29.7938 35.9825C30.1308 35.6788 30.0999 35.5143 29.3596 33.6714L28.9273 32.5956L28.4951 31.5199C28.3763 31.224 28.1767 30.7279 28.0517 30.4172C27.9267 30.1066 27.6886 29.4894 27.5227 29.0456C27.3567 28.6019 27.1186 27.9846 26.9936 27.674C26.8686 27.3634 26.6639 26.855 26.5388 26.5445C26.4138 26.2339 26.2418 25.7923 26.1567 25.5634C26.0716 25.3343 25.9375 25.0197 25.8587 24.8641C25.8208 24.7893 25.7935 24.7228 25.7769 24.6642L25.0718 22.8383C24.9602 22.6824 24.8617 22.3938 24.681 21.8596C24.6165 21.6691 24.5692 21.5126 24.5402 21.3861L23.775 18.6543L25.0718 18.4327C25.1654 18.3633 25.2911 18.3243 25.5237 18.3115C25.5237 18.3115 26.3056 18.1361 26.7955 17.9848C26.9239 17.9452 27.0681 17.9384 27.2054 17.932C27.4768 17.9192 27.721 17.9078 27.7616 17.6463C27.7699 17.5923 27.7843 17.5433 27.7975 17.498C27.8528 17.309 27.8895 17.1835 27.3989 17.019C26.7908 16.8151 26.0005 16.604 25.5237 16.5426C25.1077 16.4889 24.3208 16.4208 23.775 16.3911C22.6366 16.3292 22.6186 16.3168 22.2692 15.3453C21.4282 13.0076 20.6484 10.9107 20.2831 10.0046C20.0032 9.31052 19.5611 8.13665 18.9863 6.56216C18.2926 4.66182 18.2401 4.53284 17.8357 3.73312C17.3558 2.7844 16.4747 1.47035 16.0217 1.02778C15.0775 0.105317 14.6774 0 12.1176 0C10.9826 0 10.0177 0.0363608 9.97326 0.0806823ZM17.6785 6.21254C16.0013 2.46232 15.4217 1.58492 14.3842 1.22529C13.9268 1.06683 10.5537 1.00842 10.4054 1.15645C10.361 1.20077 8.93054 1.268 7.22686 1.30565C3.04022 1.39817 1.76076 1.62128 1.18808 2.35861C0.956841 2.65617 1.03842 3.31529 1.4728 4.6601C2.42929 7.62179 4.42428 13.442 4.92662 14.7365C5.0525 15.061 5.15558 15.4144 5.15558 15.5218C5.15558 15.629 5.23716 15.8717 5.33701 16.0612C5.43674 16.2505 5.54739 16.5748 5.58293 16.7819C5.65641 17.2104 5.67154 17.2124 7.2086 16.9971C8.04666 16.8796 9.08397 16.7475 10.5312 16.5739C11.4319 16.4659 11.7786 16.402 14.124 15.9115C15.0257 15.723 17.6624 15.6655 18.1486 15.8237C18.5015 15.9386 18.5804 15.9311 18.7647 15.765C18.9522 15.5961 18.9816 15.3899 19.0245 13.946C19.0797 12.0862 19.1614 11.4582 19.3937 11.1051C19.5294 10.8989 19.5343 10.8067 19.4223 10.565C19.3481 10.4047 19.2008 10.0073 19.095 9.68187C18.9892 9.35645 18.8298 8.92077 18.7405 8.71369C18.6514 8.5066 18.4706 8.07092 18.339 7.7455C18.2073 7.42008 17.9101 6.7303 17.6785 6.21254ZM21.2807 16.0075C21.3312 15.8567 20.5831 13.7179 20.3569 13.3664C20.1805 13.0924 20.0838 13.2494 20.0258 13.9042C19.9929 14.2741 19.9354 14.8337 19.8976 15.1478C19.8066 15.907 19.9981 16.1365 20.7231 16.1365C21.0269 16.1365 21.2552 16.0836 21.2807 16.0075ZM4.50564 17.6751C4.50413 17.2846 4.33384 16.6659 4.14885 16.3785C3.85516 15.9223 3.76483 16.487 3.63668 19.5789C3.54872 21.7027 3.42694 23.6682 3.25795 25.6939L3.19214 26.4838L3.82264 26.4242C4.16949 26.3915 4.81792 26.313 5.26364 26.2499C5.70936 26.1868 6.30506 26.1076 6.58729 26.0739C7.09082 26.0139 7.10055 26.0055 7.10055 25.6338C7.10055 25.2217 7.07656 25.1404 5.85037 21.3836C5.39211 19.9799 4.90252 18.6633 4.76227 18.4578C4.60613 18.2291 4.50661 17.9256 4.50564 17.6751ZM16.9142 19.63C13.1932 19.7937 12.0073 19.7292 8.07303 19.1485C6.18814 18.8704 6.17593 18.8727 6.35498 19.4692C6.48907 19.9155 7.2971 22.3168 7.91246 24.0971L8.48871 25.7645L8.84809 25.748C9.04583 25.7389 9.4264 25.6754 9.69383 25.6068C10.3742 25.4323 11.1416 25.2848 11.963 25.1705C12.8507 25.047 13.8081 24.8901 14.5022 24.7542C15.0155 24.6537 15.3705 24.5702 16.4202 24.3029C16.6728 24.2386 17.1468 24.1538 17.4737 24.1146L18.068 24.0433L18.1483 22.8062C18.1923 22.1258 18.2566 21.1185 18.2911 20.5678L18.3538 19.5667L16.9142 19.63ZM18.0056 25.3978C18.0586 25.3144 18.0769 25.1813 18.0464 25.102C17.9882 24.951 17.0352 24.8923 16.8958 25.031C16.8554 25.0713 16.5676 25.1454 16.2566 25.1958C15.5227 25.3146 14.838 25.4524 14.2321 25.6032C13.6564 25.7465 12.9003 25.8969 12.044 26.0384C11.7023 26.0949 11.1188 26.1912 10.7473 26.2524C10.376 26.3136 9.80458 26.3984 9.47772 26.4407C8.75603 26.534 8.69714 26.6964 9.04951 27.6212C9.34233 28.3897 9.8504 29.9089 10.0296 30.5517C10.1038 30.8179 10.2325 31.1738 10.3157 31.3424L10.3205 31.3521C10.3614 31.4352 10.3928 31.4988 10.4425 31.5411C10.6052 31.6796 10.9647 31.5886 12.5018 31.1996L12.5572 31.1855C12.795 31.1253 13.2083 31.036 13.4757 30.9871C15.1114 30.6877 16.978 29.4278 17.3256 28.3888C17.3929 28.1879 17.4982 27.8784 17.5597 27.7009C17.8348 26.9074 17.906 26.5753 17.9075 26.0796C17.9085 25.788 17.9526 25.4812 18.0056 25.3978ZM8.91487 30.9585C8.73647 30.4685 8.33279 29.3173 8.0177 28.4002C7.57112 27.1006 7.39985 26.7258 7.24123 26.7013C7.12918 26.684 6.99919 26.7082 6.95219 26.7551C6.90529 26.802 6.49393 26.8745 6.03827 26.9163C5.20215 26.9928 4.2756 27.129 3.48075 27.2923L3.04854 27.3811L2.96361 28.563C2.74426 31.6169 2.84951 32.2464 3.65504 32.6971C4.02567 32.9045 4.19358 32.9274 5.02181 32.8837C5.98554 32.8328 6.41062 32.7738 7.12756 32.5912C8.11236 32.3405 8.36056 32.28 8.63274 32.2243C9.2373 32.1006 9.27274 31.9416 8.91487 30.9585Z" fill="white"/>
</svg>
