<svg width="26" height="39" viewBox="0 0 26 39" fill="none" xmlns="http://www.w3.org/2000/svg">
<path fill-rule="evenodd" clip-rule="evenodd" d="M3.5757 0.503375C3.12375 0.757971 2.61689 1.20124 2.44907 1.48853C2.28143 1.77581 1.78982 2.43101 1.35673 2.94438C0.574173 3.87196 0 5.2105 0 6.1074C0 6.95817 0.791887 7.94623 1.87616 8.44852C3.0455 8.99004 3.06793 9.09391 2.40025 10.8603C0.89204 14.8496 0.771245 16.6201 1.75105 20.3702C2.92488 24.8629 2.93045 25.6752 1.81226 29.5397C0.900655 32.6902 0.860271 33.7727 1.59526 35.3518C2.19618 36.6424 2.11684 36.9722 1.05717 37.5893C0.466301 37.9334 0.347304 38.0935 0.393072 38.4843L0.448712 38.9605L4.84304 38.9961C7.25998 39.0157 9.68303 38.9599 10.2276 38.8722C12.9784 38.4293 13.8995 38.3567 17.0056 38.3374C20.7064 38.3144 23.2334 37.9864 24.1827 37.406C24.9735 36.9223 25.4868 36.2202 25.4868 35.622C25.4868 35.348 25.6166 35.015 25.7751 34.8819C26.2021 34.5232 26.0129 33.3921 25.2772 31.9052C24.6634 30.665 24.6341 30.6374 22.9568 29.7318C20.4868 28.3978 19.5342 27.7172 17.246 25.6512C16.1192 24.6341 14.6499 23.4782 13.981 23.0829C12.7768 22.3714 11.8013 21.3616 11.2429 20.2487C10.9839 19.7321 10.9816 19.5946 11.2207 18.9093C11.8198 17.1912 11.7281 17.0116 8.65027 13.8706C7.01911 12.2059 6.64094 11.7209 6.64094 11.2936C6.64094 10.6487 6.87642 10.4857 7.73418 10.5369C8.31086 10.5714 8.46791 10.4846 8.95521 9.86206C9.26285 9.46909 9.5651 8.89143 9.62702 8.57818C9.68895 8.26511 9.89859 7.9228 10.093 7.81766C10.3775 7.66349 10.4223 7.51458 10.3232 7.05224C10.1658 6.31623 10.1667 5.62363 10.327 4.43618C10.5681 2.65074 10.2592 2.62658 6.68581 4.15144C6.56196 4.20428 6.46145 4.12057 6.46145 3.96458C6.46145 3.58559 7.41739 2.86992 8.6754 2.30698C9.96356 1.73059 9.86879 1.39828 8.18379 0.58473C6.63268 -0.164168 4.81755 -0.196311 3.5757 0.503375ZM11.8153 26.1359C12.2861 26.5105 13.0511 27.0578 13.515 27.3524C14.8068 28.1725 14.6499 28.3604 12.6736 28.3604C10.4017 28.3604 10.1527 28.1719 10.3301 26.5862C10.4812 25.2332 10.6255 25.1896 11.8153 26.1359Z" fill="white"/>
</svg>
