<svg width="32" height="40" viewBox="0 0 32 40" fill="none" xmlns="http://www.w3.org/2000/svg">
<path fill-rule="evenodd" clip-rule="evenodd" d="M14.4943 0.108271C13.4955 0.260057 13.054 0.61052 12.246 1.89283C11.179 3.58621 11.0352 4.05213 11.0352 5.81797C11.0352 7.74505 11.231 8.14629 12.4238 8.66151C13.7961 9.25439 14.1412 10.3364 13.1643 10.9815C12.5299 11.4005 10.4681 12.1787 9.99276 12.1787C9.25118 12.1787 8.1253 12.7496 7.67572 13.3534C7.12666 14.0906 6.25434 16.2872 6.25434 16.9325C6.25434 17.4251 5.22224 21.0105 4.98191 21.3527C4.82598 21.5747 4.0068 23.6684 3.69641 24.6382C3.47631 25.3262 3.3316 26.0286 2.86565 28.6733C2.42858 31.1539 1.81994 32.4574 0.515878 33.7052C-0.0773127 34.2731 -0.153806 35.0954 0.25992 36.4572C0.68854 37.8685 1.14529 38.4823 2.30097 39.2003C3.86613 40.1727 5.97889 40.2556 9.01803 39.4638C9.37494 39.3708 10.875 38.7775 12.3516 38.1457L15.0362 36.9969L16.0236 37.4606C17.5147 38.1606 21.259 39.3665 22.7114 39.6143C25.8254 40.1457 29.9932 39.3999 31.2035 38.0948C32.4055 36.7988 32.2275 34.4113 30.8021 32.7098C30.4819 32.3274 29.7918 30.9343 29.2527 29.5816C28.0299 26.5134 26.2608 22.8301 25.5674 21.9087C25.2377 21.4705 24.1231 17.7437 23.6292 15.4285C23.4681 14.6727 22.8756 13.3966 22.5656 13.1373C22.4248 13.0194 21.5313 12.6652 20.5797 12.3502C18.4925 11.6587 17.6925 11.1902 17.5376 10.5686C17.3591 9.85134 17.8992 8.89966 18.6685 8.57571C19.7065 8.13851 20.0948 7.04839 20.016 4.79346C19.9577 3.12899 19.9121 2.94496 19.3595 2.14321C18.0542 0.248567 16.8597 -0.251088 14.4943 0.108271ZM17.2547 1.74605C17.8157 2.16582 18.3486 3.01594 18.1661 3.19979C18.0988 3.26781 17.7754 3.13066 17.4475 2.89547C16.5033 2.21772 14.9538 2.17861 13.8923 2.80559C13.3096 3.14975 13.0578 3.22277 13.0578 3.04782C13.0578 2.7385 14.1144 1.62873 14.618 1.40911C15.2131 1.14965 16.7142 1.34147 17.2547 1.74605ZM10.1402 20.6718C10.6847 22.3029 10.7288 25.4342 10.2309 27.0979C9.23022 30.4419 8.87129 30.946 7.34805 31.1478C6.89828 31.2073 6.17123 31.31 5.73268 31.3758C4.53527 31.5552 4.49904 31.3641 5.34047 29.3071C5.75419 28.2959 6.29535 26.8431 6.54303 26.0786C6.79071 25.3141 7.21014 24.0214 7.47511 23.206C7.99806 21.5969 8.79057 19.6391 9.07007 19.2655C9.35692 18.882 9.68808 19.3172 10.1402 20.6718ZM21.1485 19.4011C21.1485 19.554 21.5833 20.61 22.2571 22.094C22.3497 22.2979 22.5956 22.9233 22.8034 23.484C23.3127 24.8577 23.5052 25.2383 24.3652 26.572C24.7703 27.2001 25.4115 28.2008 25.7897 28.7959C26.1681 29.3911 26.637 30.0864 26.8319 30.3412C27.2896 30.9399 27.4341 31.4781 27.2267 31.8113C27.0261 32.1334 25.6051 31.7833 25.449 31.3734C25.3979 31.239 25.0092 30.9851 24.5853 30.809C24.1615 30.6331 23.5429 30.3726 23.2108 30.2299C22.8788 30.0873 22.3637 29.9706 22.0662 29.9706C21.6078 29.9706 21.4717 29.8507 21.1733 29.1829C19.9902 26.5364 19.6324 22.9339 20.3081 20.4723C20.5157 19.7156 20.7496 19.2213 20.8999 19.2213C21.0367 19.2213 21.1485 19.3023 21.1485 19.4011Z" fill="white"/>
</svg>
