<svg width="30" height="43" viewBox="0 0 30 43" fill="none" xmlns="http://www.w3.org/2000/svg">
<path fill-rule="evenodd" clip-rule="evenodd" d="M29.7124 0.0872748C29.6075 0.134737 29.4068 0.293981 29.2663 0.441159C28.9694 0.752193 28.8768 0.771178 28.616 0.574453C28.5199 0.501928 28.3955 0.442622 28.3395 0.442622C28.2177 0.442622 27.9451 0.670886 27.8516 0.851066C27.7326 1.08044 27.4643 1.33793 27.0997 1.57258C26.6676 1.85062 26.4008 2.14236 26.2731 2.47655C26.1918 2.68942 26.1686 2.90011 26.1184 3.88033C26.0859 4.51464 26.0484 5.16337 26.0351 5.32194C26.0217 5.48052 25.9691 6.11927 25.9181 6.74138C25.8672 7.3635 25.8059 7.94848 25.7819 8.04137C25.7116 8.31337 25.4733 8.53666 25.1064 8.67435C24.9304 8.7404 24.396 8.94941 23.9188 9.13877C22.7645 9.59685 22.6665 9.6228 21.9166 9.6692C21.222 9.71218 20.8486 9.80041 20.394 10.0289C20.1037 10.1749 20.0178 10.1827 19.7094 10.0914C19.06 9.89915 18.8808 8.98507 19.4756 8.89919C20.4827 8.75375 20.4721 8.76834 20.5205 7.47124C20.5437 6.8493 20.5371 6.63129 20.4916 6.51498C20.4592 6.43212 20.4294 6.20466 20.4256 6.00948C20.42 5.72289 20.3912 5.58751 20.2762 5.3058C20.1979 5.11391 20.1126 4.85442 20.0867 4.72915C20.0168 4.39061 19.8643 4.19216 19.484 3.9446C19.057 3.6667 18.8032 3.59174 18.2935 3.59298C16.412 3.59746 15.2434 4.86253 15.5762 6.53459C15.6215 6.7621 15.6376 6.9421 15.6146 6.96499C15.5929 6.98663 15.4295 7.0349 15.2514 7.07224C14.847 7.15706 14.7088 7.22772 14.5339 7.43908C14.3024 7.71884 14.2336 8.24891 14.3763 8.6523C14.4918 8.97851 14.4966 8.9766 13.6286 8.94546C12.5155 8.90549 10.7933 8.64653 10.3147 8.44719L10.1517 8.37933L10.4058 8.14543C10.5456 8.01679 10.6621 7.90275 10.6649 7.89201C10.6677 7.88128 10.6828 7.6319 10.6985 7.33786C10.7234 6.87401 10.7433 6.77212 10.8493 6.56861C11.0052 6.26897 11.0032 6.23784 10.8156 6.05087C10.73 5.96548 10.6599 5.88537 10.6599 5.87282C10.6599 5.86027 10.7571 5.64464 10.8758 5.39367C11.0362 5.0546 11.1658 4.85686 11.3799 4.62429C11.7564 4.21527 11.8404 3.97583 11.8354 3.32586C11.8301 2.64218 11.677 2.40056 11.1628 2.26425C10.9139 2.19829 10.7415 2.01669 10.6485 1.72242C10.5529 1.42022 10.3745 1.24203 10.1354 1.2101C9.98166 1.18951 9.94718 1.20109 9.88622 1.29384C9.82175 1.39196 9.82157 1.47943 9.88426 2.28603C9.92208 2.77254 9.98193 3.27347 10.0173 3.39922C10.1375 3.82714 10.1327 3.83836 9.16704 5.36892C8.05467 7.13217 7.9381 7.35254 7.74019 8.06665C7.68356 8.271 7.6081 8.48255 7.57246 8.53675C7.48601 8.66831 7.11084 8.98982 6.12163 9.78009C3.96239 11.5051 2.59112 12.7121 0.956581 14.3265C0.454301 14.8226 0.323313 14.9799 0.192993 15.2433C-0.140481 15.9174 -0.0429971 16.5381 0.494789 17.1654C1.27764 18.0784 2.61599 18.9702 4.20844 19.64C4.44091 19.7378 4.95147 19.9524 5.343 20.117C7.04268 20.8314 7.7066 21.2387 8.65937 22.1517C8.94168 22.4222 9.32445 22.7833 9.5099 22.954C10.0736 23.4731 10.1309 23.6586 10.2586 25.3781C10.3724 26.9108 10.4347 27.3843 10.6816 28.5974C10.7901 29.1301 10.9102 29.8747 10.9485 30.2522C10.9868 30.6296 11.057 31.118 11.1044 31.3376C11.3085 32.2829 11.3318 32.7435 11.2145 33.5111C11.0958 34.2875 11.064 34.7795 11.1043 35.2189C11.1255 35.4506 11.194 36.1493 11.2566 36.7714C11.5188 39.38 11.5886 41.2316 11.4448 41.768C11.2942 42.3299 11.3827 42.6973 11.7096 42.8683C11.9236 42.9802 12.6103 42.9825 13.1738 42.8731C13.6571 42.7793 13.9331 42.7862 14.3412 42.9022C14.7386 43.0151 15.4716 43.0325 16.0436 42.9425C16.4815 42.8736 16.5244 42.8585 16.5807 42.7537C16.671 42.5853 16.5331 42.4698 16.0577 42.3157C15.5552 42.1528 15.4231 42.0899 14.82 41.7263C13.5844 40.9814 13.4178 40.7783 13.4188 40.0184C13.419 39.8793 13.4577 39.3164 13.5048 38.7675C13.6793 36.7339 13.787 33.9204 13.7943 31.2045C13.7971 30.1434 13.7976 30.1384 13.9371 29.671C14.2309 28.6868 14.3964 27.6587 14.4401 26.547C14.4646 25.9211 14.5022 25.537 14.5675 25.2427C14.6184 25.0133 14.6814 24.5442 14.7075 24.2003C14.7683 23.3985 14.8238 23.0987 14.9629 22.8224C15.0934 22.5632 15.8138 21.8325 16.9553 20.8015C17.3711 20.426 17.7531 20.068 17.8043 20.006C17.9885 19.783 19.8531 16.6414 20.1627 16.0326C20.3368 15.6901 20.5355 15.241 20.6042 15.0345C20.7981 14.4516 20.8588 14.3314 21.3432 13.571C21.9924 12.5519 22.289 12.3139 23.352 11.9586C24.2662 11.6531 24.7311 11.3743 26.0035 10.3682C26.4436 10.0202 26.9204 9.64569 27.0631 9.5359C27.2367 9.4023 27.3593 9.26293 27.4337 9.11451L27.545 8.89272L27.535 7.15093C27.5259 5.54896 27.5161 5.34803 27.4127 4.64749C27.1819 3.08384 27.1917 3.0606 28.5858 1.86565C29.745 0.871958 29.8536 0.756052 29.949 0.410996C30.0207 0.151327 30.0166 -0.00219417 29.9378 2.37064e-05C29.9188 0.000555996 29.8173 0.0398123 29.7124 0.0872748ZM9.8557 10.6871C10.2192 10.9196 10.7834 11.0965 11.9057 11.3299C13.0212 11.5619 13.0584 11.5865 13.4138 12.3304C13.7789 13.0948 13.8032 13.3525 13.5948 14.2528C13.2399 15.7865 12.8848 16.4495 12.2617 16.7425L12.0169 16.8575L11.1271 16.8306C10.3421 16.8068 10.1769 16.8145 9.72556 16.8962C8.55664 17.1076 8.34285 17.1342 7.79012 17.1372C7.08352 17.1409 6.75481 17.073 5.83243 16.7328C5.46536 16.5974 4.79463 16.3632 4.34191 16.2123C3.80213 16.0323 3.5188 15.9167 3.5188 15.8764C3.5188 15.8425 3.63893 15.7444 3.78575 15.6584C4.42779 15.2822 4.43054 15.2788 6.45466 12.3526C7.29504 11.1377 7.64863 10.6659 7.74696 10.6283C7.88061 10.5772 8.02179 10.5996 8.27865 10.7128C8.70218 10.8996 8.8555 10.9005 9.19164 10.7184C9.54759 10.5255 9.59929 10.523 9.8557 10.6871Z" fill="white"/>
</svg>
