<svg width="42" height="35" viewBox="0 0 42 35" fill="none" xmlns="http://www.w3.org/2000/svg">
<path fill-rule="evenodd" clip-rule="evenodd" d="M3.27527 0.241316C3.14334 0.374068 3.03545 0.555447 3.03545 0.644362C3.03545 0.790488 3.58917 2.3727 6.01439 9.15687C6.44315 10.3563 6.77789 11.3779 6.75828 11.4272C6.72661 11.5069 5.96746 12.0972 1.7271 15.3389C0.19804 16.5079 0.171295 16.5377 0.0794052 17.1777C-0.0535061 18.1029 -0.0149455 19.8756 0.160547 20.9086C1.74383 30.2278 13.286 36.561 25.2284 34.6633C30.3169 33.8548 34.5857 31.7758 37.7401 28.5697C39.2558 27.0292 40.1655 25.7286 40.8875 24.0695C41.3314 23.0496 41.3375 22.994 41.0502 22.5704L40.8325 22.2493L40.9908 21.6348C41.1384 21.0615 41.1668 21.0157 41.4132 20.9515C41.8875 20.8278 41.9619 20.5977 41.9935 19.1571C42.028 17.5844 41.9262 16.7359 41.6704 16.4619C41.5699 16.3542 40.092 15.1975 38.3861 13.8915C36.6802 12.5854 35.2683 11.4765 35.2484 11.4272C35.2286 11.3779 35.563 10.3563 35.9918 9.15687C38.417 2.3727 38.9707 0.790488 38.9707 0.644362C38.9707 0.428639 38.5356 0 38.3166 0C37.9506 0 37.6758 0.231409 37.5095 0.679944C37.2257 1.44542 36.2233 4.24503 35.0778 7.47146C34.4652 9.19691 33.8925 10.7638 33.805 10.9533C33.6424 11.3059 33.5577 11.3749 28.8846 14.9633C26.6112 16.7091 26.7117 16.584 26.8417 17.5046C26.9487 18.2622 26.8766 20.1255 26.708 20.9644C26.4087 22.4525 25.7368 24.0331 24.8043 25.4426C23.8938 26.8188 21.4711 29.2254 20.996 29.2254C20.7805 29.2254 19.9066 28.5287 18.9978 27.6326C18.2735 26.9183 18.0898 26.8107 17.7216 26.8848C17.4319 26.9431 17.3121 26.8585 16.9646 26.3504C16.7222 25.9957 16.7184 25.9766 16.8486 25.7551C17.0538 25.4053 17.0211 25.2668 16.4946 24.2581C15.467 22.289 15.0277 20.3603 15.1347 18.2865C15.2191 16.649 15.2221 16.6933 15.0088 16.4648C14.903 16.3514 14.3347 15.8896 13.746 15.4386C8.38103 11.3285 8.41426 11.3553 8.22375 10.9771C8.12161 10.7744 7.37164 8.73252 6.55719 6.43949C5.24268 2.73901 4.56516 0.851333 4.38557 0.389094C4.31747 0.213824 3.93498 0 3.68959 0C3.5936 0 3.40719 0.108563 3.27527 0.241316ZM9.9493 14.3344C11.2481 15.3394 12.0193 15.9893 12.0193 16.0792C12.0193 16.2131 11.7599 16.2234 8.08116 16.235C3.90676 16.2483 3.28158 16.2255 3.28158 16.0603C3.28158 16.0043 3.66005 15.6683 4.12254 15.3138C7.29567 12.8812 7.63222 12.6373 7.75216 12.6837C7.82215 12.7107 8.81078 13.4535 9.9493 14.3344ZM35.9124 13.7931C36.534 14.2731 37.4425 14.9742 37.9312 15.351C38.5886 15.8581 38.7956 16.0603 38.7273 16.129C38.6359 16.221 30.3373 16.2967 30.0074 16.2085C29.9285 16.1874 29.8639 16.1383 29.8639 16.0995C29.8639 16.0298 33.8542 12.9115 34.1712 12.7337C34.3773 12.6179 34.44 12.6561 35.9124 13.7931Z" fill="white"/>
</svg>
