<svg width="241" height="42" viewBox="0 0 241 42" fill="none" xmlns="http://www.w3.org/2000/svg">
<path fill-rule="evenodd" clip-rule="evenodd" d="M11.697 0.0903093C7.32707 0.340234 4.8115 1.14124 3.03278 2.8492C1.17132 4.6367 0.363707 7.13963 0.0908561 11.9666C-0.0302854 14.1096 -0.0302854 27.8439 0.0908561 29.9869C0.357009 34.6947 1.10159 37.1002 2.85947 38.931C4.648 40.7935 7.108 41.5831 12.024 41.8727C14.136 41.997 27.7641 41.996 29.9971 41.8714C34.9768 41.5933 37.3582 40.799 39.2487 38.7858C40.7233 37.2154 41.4273 35.2124 41.8104 31.4964C41.9841 29.812 41.9841 12.1414 41.8104 10.4571C41.4269 6.73705 40.7247 4.74114 39.2431 3.16017C37.3734 1.16492 35.0016 0.370237 30.0574 0.0825728C28.0924 -0.0317756 13.726 -0.0256431 11.697 0.0903093ZM103.493 11.5446C98.3227 12.3554 94.9078 16.3698 94.9078 21.6372C94.9078 27.447 98.9628 31.5867 104.909 31.8468C110.433 32.0884 114.65 28.9903 115.823 23.8284C116.062 22.7741 116.039 20.3845 115.778 19.2506C115.069 16.1681 113.074 13.6919 110.248 12.3863C108.38 11.5233 105.733 11.1934 103.493 11.5446ZM167.225 11.5043C164.56 11.8847 162.164 13.5102 161.095 15.663C160.846 16.1643 160.682 16.6105 160.714 16.6953C160.783 16.876 164.343 17.5031 164.572 17.3749C164.648 17.3321 164.837 17.1232 164.991 16.9106C165.821 15.7649 167.377 15.0811 168.876 15.2036C170.671 15.3504 171.885 16.4965 172.329 18.4639C172.413 18.8338 172.457 19.2003 172.427 19.2783C172.38 19.3996 171.996 19.42 169.751 19.4203C168.31 19.4204 166.748 19.4672 166.281 19.5242C161.794 20.0719 159.365 22.4016 159.563 25.9684C159.761 29.5431 162.762 32.0283 166.659 31.8435C167.939 31.7829 168.574 31.6199 169.725 31.057C170.51 30.6731 170.743 30.4965 171.599 29.6346C172.17 29.0601 172.612 28.6854 172.661 28.7344C172.708 28.7806 172.897 29.3466 173.083 29.9922C173.269 30.638 173.466 31.2203 173.52 31.2864C173.595 31.3768 173.998 31.4002 175.14 31.3807L176.659 31.3549L176.684 25.3314C176.711 18.6604 176.682 18.2045 176.132 16.5466C174.89 12.802 171.516 10.8918 167.225 11.5043ZM228.456 11.5052C225.092 11.9898 222.277 14.0633 220.851 17.1069C220.138 18.6276 219.976 19.4687 219.976 21.6372C219.975 23.4044 219.992 23.5837 220.234 24.4643C221.151 27.7906 223.435 30.2471 226.596 31.3061C231.057 32.8007 236.464 31.2472 238.739 27.8169C239.397 26.825 239.608 26.3318 239.443 26.1773C239.366 26.1055 238.579 25.937 237.655 25.7943C236.747 25.6542 235.919 25.5196 235.815 25.4955C235.677 25.4633 235.447 25.627 234.964 26.0985C233.904 27.1337 232.878 27.6189 231.342 27.8107C228.226 28.1996 225.576 26.5923 224.778 23.8303C224.498 22.8597 223.617 22.9644 232.514 22.9108L240.344 22.8637L240.33 21.3069C240.318 19.963 240.283 19.6213 240.071 18.8068C238.891 14.2739 234.947 11.36 230.06 11.4124C229.489 11.4185 228.767 11.4602 228.456 11.5052ZM56.1548 11.7896C55.9646 11.9838 55.9841 31.3352 56.1746 31.4933C56.4112 31.6896 67.0049 31.5701 67.9246 31.3608C70.0486 30.8773 71.7764 29.6948 72.491 28.2354C73.6628 25.8422 72.7678 22.8508 70.4964 21.5689C70.219 21.4124 70.0045 21.2469 70.0197 21.2012C70.0349 21.1555 70.342 20.8952 70.7022 20.6228C71.8557 19.7503 72.3586 18.7808 72.4306 17.2905C72.5575 14.6625 70.9665 12.8277 67.8313 11.9866L66.9339 11.7458L61.6033 11.7075C57.3647 11.6771 56.2486 11.6938 56.1548 11.7896ZM76.8987 11.8117C76.8209 11.9054 76.7988 14.5527 76.8163 21.6474L76.8404 31.3549H79.0575H81.2747L81.3218 27.5338L81.369 23.7128H81.8879H82.4068L85.4731 27.2191C87.1596 29.1476 88.679 30.8783 88.8496 31.0652L89.1598 31.4049L91.9159 31.3799C93.9475 31.3615 94.6719 31.3258 94.6719 31.2442C94.6719 31.1833 92.7402 28.944 90.3792 26.268C88.0181 23.5919 86.0735 21.3232 86.058 21.2263C86.0387 21.1072 87.3182 19.5749 90.004 16.5005C92.4897 13.6551 93.9592 11.9008 93.9272 11.8173C93.8848 11.7068 93.4586 11.6836 91.4686 11.6836H89.0613L88.7842 11.943C88.6318 12.0858 87.2047 13.7097 85.6127 15.5518C82.1441 19.5658 82.3697 19.3433 81.8064 19.3068L81.369 19.2785L81.3443 15.6073C81.3273 13.089 81.2867 11.8964 81.2149 11.8098C81.061 11.6244 77.0526 11.6262 76.8987 11.8117ZM119.671 11.7997C119.646 11.8656 119.636 16.2924 119.65 21.6372L119.674 31.3549H121.844H124.014L124.061 27.4867L124.108 23.6184H128.448H132.788L132.835 27.4867L132.882 31.3549H135.052H137.222L137.246 21.6474C137.264 14.4748 137.242 11.9059 137.163 11.8099C137.076 11.7054 136.648 11.685 134.969 11.7054L132.882 11.7307L132.835 15.599L132.788 19.4672H128.448H124.108L124.061 15.599L124.014 11.7307L121.865 11.7054C120.197 11.6856 119.706 11.7068 119.671 11.7997ZM139.921 11.8136C139.846 11.9041 139.821 12.5153 139.838 13.8184L139.864 15.6933L143.213 15.7405L146.563 15.7877L146.61 23.5713L146.657 31.3549H148.78H150.903L150.95 23.5713L150.997 15.7877L154.394 15.7405L157.79 15.6933L157.816 13.8184C157.833 12.5153 157.808 11.9041 157.733 11.8136C157.643 11.7048 156.188 11.6836 148.827 11.6836C141.466 11.6836 140.011 11.7048 139.921 11.8136ZM181.373 11.8015C181.348 11.8664 181.339 16.2924 181.352 21.6372L181.377 31.3549H183.547H185.717L185.764 27.5338L185.811 23.7128L186.283 23.6852C186.567 23.6685 186.815 23.7059 186.906 23.7795C186.989 23.8466 188.509 25.5676 190.283 27.6039C192.176 29.7761 193.595 31.3273 193.717 31.3572C194.187 31.4718 199.114 31.3588 199.114 31.2333C199.114 31.1665 197.182 28.9206 194.821 26.2425C192.392 23.4876 190.528 21.2958 190.528 21.195C190.528 21.0951 192.251 19.0424 194.444 16.5286C196.597 14.0601 198.373 11.9601 198.389 11.862C198.418 11.6907 198.32 11.6836 195.953 11.6836H193.486L193.232 11.943C193.092 12.0857 191.605 13.7844 189.926 15.7177C188.104 17.8168 186.79 19.2544 186.663 19.2863C186.546 19.3156 186.307 19.3259 186.131 19.3091L185.811 19.2785L185.786 15.6073C185.769 13.089 185.729 11.8964 185.657 11.8098C185.51 11.6324 181.441 11.6245 181.373 11.8015ZM200.501 11.7963C200.33 11.9675 200.342 15.4904 200.514 15.6333C200.599 15.7044 201.695 15.746 203.934 15.7628L207.228 15.7877L207.275 23.5713L207.322 31.3549H209.445H211.568L211.615 23.5713L211.662 15.7877L215.011 15.7405L218.361 15.6933V13.712V11.7307L209.488 11.7067C202.665 11.6882 200.589 11.7088 200.501 11.7963ZM11.7641 12.8393C11.8155 12.9042 11.8855 13.403 11.9196 13.9479C12.2386 19.0416 14.2058 22.9224 17.2323 24.4282C18.4682 25.0432 18.3379 25.6796 18.3925 18.7583L18.4396 12.7686H20.6096H22.7796L22.8268 16.165L22.8739 19.5615L23.302 19.5479C23.8319 19.5311 24.8131 19.0972 25.5955 18.5336C27.1106 17.442 28.6158 15.4024 29.293 13.5233C29.5993 12.6736 29.4665 12.7145 31.8295 12.7432L33.9125 12.7686L33.9419 13.0225C33.9856 13.401 33.358 15.1802 32.8135 16.2215C31.9189 17.9321 30.3539 19.744 28.8317 20.8319C28.4348 21.1155 28.1102 21.3984 28.1102 21.4606C28.1102 21.5228 28.3867 21.7284 28.7247 21.9174C30.8413 23.101 32.8765 25.2804 34.0945 27.6673C34.6064 28.6706 35.0541 29.968 34.9309 30.0912C34.8801 30.142 33.8554 30.1683 32.5011 30.1537C30.5321 30.1324 30.1475 30.1058 30.0866 29.9869C30.0467 29.909 29.8433 29.4757 29.6346 29.024C28.7326 27.0717 27.4264 25.6875 25.6369 24.7877C24.7966 24.3651 23.6231 24.0179 23.1798 24.0606L22.8739 24.0902L22.8268 27.1093L22.7796 30.1284L21.3644 30.1175C18.398 30.0949 15.4955 29.1476 13.2661 27.4744C10.1798 25.1581 8.11629 21.2887 7.40859 16.491C7.18574 14.9801 7.06224 12.987 7.18244 12.8421C7.32528 12.6701 11.628 12.6674 11.7641 12.8393ZM231.396 15.4164C233.155 15.7798 234.618 16.9337 235.364 18.5473C235.781 19.4484 236.245 19.3728 230.294 19.3728C224.3 19.3728 224.795 19.4609 225.233 18.4734C226.299 16.0737 228.732 14.8663 231.396 15.4164ZM66.4571 15.5799C67.074 15.8557 67.461 16.2112 67.698 16.7201C68.1812 17.758 67.8111 18.7827 66.7453 19.3579C66.3815 19.5542 66.2612 19.5615 63.3959 19.5615H60.424L60.3984 17.5827C60.3844 16.4943 60.395 15.5463 60.4219 15.4761C60.504 15.262 65.9558 15.3558 66.4571 15.5799ZM106.984 15.5691C107.218 15.6233 107.764 15.8363 108.199 16.0426C109.588 16.7018 110.539 17.8579 111.056 19.5144C111.379 20.5474 111.379 22.7242 111.057 23.76C110.25 26.3571 108.189 27.8527 105.427 27.8462C103.68 27.8422 102.448 27.3555 101.315 26.222C100.07 24.9766 99.5848 23.6903 99.5848 21.6372C99.5848 20.2285 99.7247 19.5634 100.245 18.4998C101.405 16.1258 104.181 14.9189 106.984 15.5691ZM172.309 23.4987C172.286 24.61 171.712 25.9197 170.885 26.7473C168.858 28.7741 164.778 28.4304 164.109 26.1764C163.748 24.96 164.157 23.9573 165.227 23.4335C166.143 22.9856 166.703 22.9229 169.631 22.9412L172.319 22.958L172.309 23.4987ZM66.7893 23.202C68.8 23.6333 69.3711 26.2058 67.7035 27.3202C66.9253 27.8404 66.7437 27.8636 63.4431 27.8638L60.424 27.8641L60.3986 25.6016C60.3848 24.3573 60.394 23.2852 60.4193 23.2194C60.4793 23.0629 66.0697 23.0477 66.7893 23.202Z" fill="#0077FF"/>
</svg>
